<?xml version="1.0" encoding="UTF-8"?>
<!DOCTYPE svg PUBLIC "-//W3C//DTD SVG 1.1//EN" "http://www.w3.org/Graphics/SVG/1.1/DTD/svg11.dtd">
<!-- Creator: CorelDRAW X7 -->
<svg xmlns="http://www.w3.org/2000/svg" xml:space="preserve" width="11.4707in" height="11.4707in" version="1.1" style="shape-rendering:geometricPrecision; text-rendering:geometricPrecision; image-rendering:optimizeQuality; fill-rule:evenodd; clip-rule:evenodd"
viewBox="0 0 2129 2129"
 xmlns:xlink="http://www.w3.org/1999/xlink">
 <defs>
  <style type="text/css">
   <![CDATA[
    .fil0 {fill:#1A1A1A}
    .fil1 {fill:#4D4D4D}
   ]]>
  </style>
 </defs>
 <g id="Layer_x0020_1">
  <metadata id="CorelCorpID_0Corel-Layer"/>
  <g id="_900714448">
   <circle class="fil0" cx="1065" cy="1065" r="1065"/>
   <path class="fil1" d="M1252 389c-47,0 -66,-10 -110,17 -34,21 -97,58 -140,90 -49,37 -162,110 -226,223 -64,112 -119,183 -136,223 -17,40 -13,77 -14,112 -2,35 -18,65 -34,77 -15,12 -64,73 -90,125 -25,53 -69,140 -66,192 2,46 42,80 58,86 10,4 26,-14 15,-24 -11,-10 -47,-28 -43,-44 4,-17 29,-31 49,-27 21,3 32,8 41,2 10,-7 38,-33 42,-63 5,-30 7,-122 47,-194 39,-71 90,-78 81,-102 -9,-24 -26,-12 -29,-38 -3,-27 4,-95 11,-83 8,12 6,58 23,45 17,-13 35,-31 74,-30 39,1 72,1 72,1 0,0 22,-2 16,9 -4,9 -28,43 -51,74 -20,28 -39,37 -42,38 -12,5 -44,12 -54,29 -16,29 -7,34 -10,42 43,62 99,129 163,168 36,22 83,44 122,53 126,28 133,160 124,243 30,-15 78,-27 164,-30 -4,-20 -8,-44 -11,-59 -4,-26 14,-51 36,-75 74,-79 229,-339 255,-458 18,-87 25,-186 16,-251 -9,-62 -29,-118 -28,-127 1,-7 7,-13 11,-4 182,504 -289,835 -271,918 5,21 8,39 11,56 6,0 13,0 20,0 218,0 274,1 390,-41 79,-29 195,-28 277,-18 73,-144 114,-307 114,-479 0,-318 -139,-603 -359,-798 -115,31 -197,64 -203,63 -7,0 -5,-158 -51,-166 -47,-9 -270,159 -264,225zm-526 792c-6,5 -13,10 -24,17 -25,16 -56,51 -67,84 -19,55 -14,98 -22,128 -9,29 -8,49 -31,62 -23,14 -62,78 -48,110 13,33 76,79 129,91 23,6 39,10 51,15 100,-47 240,-116 272,-216 20,-62 -42,-83 -98,-118 -63,-40 -117,-114 -162,-173zm2 515c4,5 7,10 8,17 2,21 17,95 57,119 40,24 116,20 162,9 65,-16 90,-120 129,-157 15,-13 25,-30 48,-44 2,-38 3,-87 -13,-135 -12,-36 -65,-116 -111,-81 -2,1 5,33 -7,67 -24,70 -177,170 -273,205zm641 -1318c24,-67 95,-141 114,-158 19,-18 31,21 38,61 7,40 -8,153 -34,188 -26,34 -61,23 -72,43 -9,17 -12,36 -10,50 0,5 2,6 -1,9 -35,38 -58,-128 -35,-193z"/>
  </g>
 </g>
</svg>
