<?xml version="1.0" encoding="UTF-8"?>
<!DOCTYPE svg PUBLIC "-//W3C//DTD SVG 1.1//EN" "http://www.w3.org/Graphics/SVG/1.1/DTD/svg11.dtd">
<!-- Creator: CorelDRAW X7 -->
<svg xmlns="http://www.w3.org/2000/svg" xml:space="preserve" width="9.12331in" height="9.08513in" version="1.1" style="shape-rendering:geometricPrecision; text-rendering:geometricPrecision; image-rendering:optimizeQuality; fill-rule:evenodd; clip-rule:evenodd"
viewBox="0 0 2347 2338"
 xmlns:xlink="http://www.w3.org/1999/xlink">
 <defs>
  <style type="text/css">
   <![CDATA[
    .fil0 {fill:#4D4D4D}
   ]]>
  </style>
 </defs>
 <g id="Layer_x0020_1">
  <metadata id="CorelCorpID_0Corel-Layer"/>
  <path class="fil0" d="M1132 312c-66,0 -92,-14 -153,24 -48,29 -134,81 -194,126 -68,50 -224,151 -313,308 -90,156 -165,254 -188,310 -24,55 -18,105 -21,154 -2,49 -24,90 -46,107 -22,17 -90,102 -125,174 -35,73 -95,193 -92,266 3,64 59,111 81,119 13,5 36,-19 21,-33 -15,-14 -66,-38 -60,-62 6,-23 40,-43 68,-37 29,5 44,12 57,3 14,-9 52,-46 58,-88 6,-41 10,-169 65,-268 54,-98 125,-108 113,-142 -13,-33 -37,-16 -41,-53 -4,-37 5,-131 16,-115 11,17 8,81 32,63 24,-17 48,-43 102,-41 54,2 100,1 100,1 0,0 30,-3 22,13 -6,11 -39,59 -70,102 -28,38 -55,52 -60,53 -15,6 -60,16 -74,40 -22,40 -10,48 -13,59 59,85 137,177 225,232 51,30 116,61 170,73 174,40 183,223 171,337 42,-21 108,-37 228,-41 -5,-28 -12,-62 -15,-82 -7,-36 18,-71 50,-104 101,-109 316,-470 352,-636 26,-119 36,-257 23,-347 -13,-86 -40,-164 -39,-176 2,-9 10,-19 15,-6 253,699 -400,1158 -375,1273 6,28 11,55 14,77 10,0 19,0 29,0 302,0 380,2 540,-56 109,-40 270,-39 385,-25 100,-200 157,-426 157,-665 0,-440 -192,-835 -498,-1105 -159,43 -272,88 -280,88 -11,-1 -7,-220 -72,-232 -64,-11 -374,221 -365,312zm-730 1099c-7,6 -18,14 -33,24 -34,22 -77,70 -93,116 -26,77 -19,136 -31,177 -11,40 -10,68 -42,86 -32,19 -86,108 -67,153 18,45 106,109 179,126 32,8 55,13 70,20 140,-65 333,-160 378,-299 27,-86 -58,-115 -136,-164 -87,-55 -163,-157 -225,-239zm3 714c6,6 10,14 11,23 3,29 24,132 79,165 56,33 160,28 225,12 90,-22 124,-166 179,-217 20,-18 34,-41 66,-61 3,-52 4,-121 -17,-187 -17,-50 -91,-161 -155,-112 -2,1 7,46 -9,93 -34,96 -245,235 -379,284zm889 -1828c33,-92 131,-194 158,-219 27,-25 43,29 53,85 10,56 -12,213 -48,260 -35,48 -85,32 -99,60 -13,23 -17,50 -14,70 0,6 3,8 -1,12 -49,53 -82,-178 -49,-268z"/>
 </g>
</svg>
