<?xml version="1.0" encoding="UTF-8"?>
<!DOCTYPE svg PUBLIC "-//W3C//DTD SVG 1.1//EN" "http://www.w3.org/Graphics/SVG/1.1/DTD/svg11.dtd">
<!-- Creator: CorelDRAW X7 -->
<svg xmlns="http://www.w3.org/2000/svg" xml:space="preserve" width="11.4757in" height="11.4757in" version="1.1" style="shape-rendering:geometricPrecision; text-rendering:geometricPrecision; image-rendering:optimizeQuality; fill-rule:evenodd; clip-rule:evenodd"
viewBox="0 0 9861 9861"
 xmlns:xlink="http://www.w3.org/1999/xlink">
 <defs>
  <style type="text/css">
   <![CDATA[
    .fil0 {fill:black}
    .fil1 {fill:#EDEDED}
   ]]>
  </style>
 </defs>
 <g id="Layer_x0020_1">
  <metadata id="CorelCorpID_0Corel-Layer"/>
  <g id="_823689920">
   <circle class="fil0" cx="4931" cy="4931" r="4931"/>
   <path class="fil1" d="M5797 1801c-218,0 -306,-46 -509,79 -158,97 -450,268 -649,416 -227,172 -750,510 -1046,1033 -297,519 -551,847 -630,1032 -78,186 -60,357 -65,519 -9,162 -83,301 -157,356 -70,56 -296,339 -417,579 -115,246 -319,648 -305,889 9,213 194,371 268,398 47,19 121,-64 70,-111 -51,-46 -218,-129 -200,-203 19,-79 135,-144 227,-126 98,14 148,38 190,10 46,-33 176,-153 195,-292 23,-139 32,-565 217,-898 181,-329 417,-361 375,-472 -41,-111 -120,-56 -134,-176 -14,-125 19,-440 51,-384 37,55 28,268 107,208 78,-60 162,-144 342,-139 181,5 333,5 333,5 0,0 102,-10 75,41 -19,42 -130,199 -237,343 -92,129 -180,171 -194,176 -56,23 -204,55 -250,134 -74,134 -32,157 -46,194 199,287 458,598 754,778 167,102 385,204 565,246 584,129 616,740 574,1125 139,-70 362,-125 760,-139 -19,-93 -37,-204 -51,-273 -19,-121 64,-237 167,-348 342,-365 1060,-1569 1180,-2120 83,-403 116,-861 74,-1162 -41,-287 -134,-547 -129,-588 4,-33 32,-60 50,-19 843,2334 -1338,3866 -1254,4251 23,97 37,180 50,259 29,0 61,0 93,0 1010,0 1269,4 1806,-190 301,-110 717,-127 1067,-104 346,-656 542,-1404 542,-2197 0,-1458 -660,-2761 -1698,-3628 -405,121 -679,229 -703,225 -32,0 -23,-732 -236,-769 -218,-41 -1250,736 -1222,1042l0 0 0 0zm-2436 3667c-27,23 -60,46 -111,79 -116,74 -259,236 -310,389 -88,254 -65,453 -102,592 -41,134 -37,227 -144,287 -106,65 -286,361 -222,510 60,152 352,365 597,421 107,28 181,46 237,69 463,-217 1111,-537 1259,-1000 93,-287 -194,-384 -454,-546 -291,-185 -541,-528 -750,-801l0 0 0 0zm9 2384c19,23 33,47 38,79 9,97 78,440 263,551 186,111 538,93 750,42 301,-74 417,-556 598,-727 69,-60 116,-139 222,-204 9,-176 14,-403 -60,-625 -55,-167 -301,-537 -514,-375 -9,5 23,153 -32,310 -111,324 -820,787 -1265,949l0 0 0 0zm2969 -6102c110,-310 439,-653 527,-731 88,-84 144,97 176,282 33,185 -37,708 -157,870 -121,158 -283,107 -333,200 -42,78 -56,166 -47,231 0,23 9,28 -5,42 -161,176 -268,-593 -161,-894l0 0 0 0z"/>
  </g>
 </g>
</svg>
